<svg width="129" height="30" viewBox="0 0 129 30" fill="none" xmlns="http://www.w3.org/2000/svg">
<path d="M2 28.5V8.15217L10.4615 2.5V22.8478H15V6L24 12.6739V28H18.9231V21" stroke="#FDCA40" stroke-width="2.5"/>
<path d="M36.98 21.68C36.7533 20.96 36.52 20.1933 36.28 19.38C36.0533 18.5667 35.8267 17.76 35.6 16.96C35.3733 16.16 35.1667 15.4133 34.98 14.72C34.7933 14.0267 34.6333 13.4267 34.5 12.92C34.3667 12.4133 34.2733 12.0533 34.22 11.84L34.14 11.86C34.18 12.1 34.2133 12.42 34.24 12.82C34.2667 13.2067 34.2867 13.62 34.3 14.06C34.3133 14.4867 34.32 14.88 34.32 15.24V22.32H31.26V9.66H36.62C36.8067 10.3667 37 11.1133 37.2 11.9C37.4133 12.6733 37.62 13.4467 37.82 14.22C38.0333 14.98 38.22 15.7067 38.38 16.4C38.54 17.08 38.6533 17.6733 38.72 18.18H38.76C38.8267 17.6733 38.9333 17.08 39.08 16.4C39.24 15.72 39.42 14.9933 39.62 14.22C39.82 13.4467 40.0267 12.6733 40.24 11.9C40.4533 11.1133 40.6467 10.3667 40.82 9.66H46.1V22.32H43.08V15.24C43.08 14.88 43.0867 14.4867 43.1 14.06C43.1133 13.62 43.1333 13.2067 43.16 12.82C43.2 12.42 43.2333 12.1 43.26 11.86L43.18 11.84C43.1267 12.0533 43.0333 12.4133 42.9 12.92C42.7667 13.4267 42.6 14.0333 42.4 14.74C42.2133 15.4333 42.0067 16.18 41.78 16.98C41.5533 17.78 41.32 18.5867 41.08 19.4C40.8533 20.2 40.6333 20.96 40.42 21.68H36.98ZM49.1633 15.98C49.1633 14.3667 49.3433 13.0867 49.7033 12.14C50.0766 11.1933 50.7099 10.5133 51.6033 10.1C52.5099 9.68667 53.7699 9.48 55.3833 9.48C56.5966 9.48 57.6033 9.59333 58.4033 9.82C59.2033 10.0467 59.8366 10.4133 60.3033 10.92C60.7699 11.4267 61.0966 12.1 61.2833 12.94C61.4833 13.7667 61.5833 14.78 61.5833 15.98C61.5833 17.1933 61.4833 18.22 61.2833 19.06C61.0966 19.8867 60.7699 20.5533 60.3033 21.06C59.8366 21.5667 59.2033 21.9333 58.4033 22.16C57.6033 22.3867 56.5966 22.5 55.3833 22.5C54.1699 22.5 53.1633 22.3867 52.3633 22.16C51.5633 21.9333 50.9299 21.5667 50.4633 21.06C49.9966 20.5533 49.6633 19.8867 49.4633 19.06C49.2633 18.22 49.1633 17.1933 49.1633 15.98ZM55.3833 19.7C56.2366 19.7 56.8766 19.5933 57.3033 19.38C57.7299 19.1667 58.0166 18.7933 58.1633 18.26C58.3099 17.7133 58.3833 16.9533 58.3833 15.98C58.3833 15.02 58.3099 14.2733 58.1633 13.74C58.0166 13.2067 57.7299 12.8333 57.3033 12.62C56.8766 12.3933 56.2366 12.28 55.3833 12.28C54.5433 12.28 53.9033 12.3933 53.4633 12.62C53.0366 12.8333 52.7433 13.2067 52.5833 13.74C52.4366 14.2733 52.3633 15.02 52.3633 15.98C52.3633 16.9533 52.4366 17.7133 52.5833 18.26C52.7433 18.7933 53.0366 19.1667 53.4633 19.38C53.9033 19.5933 54.5433 19.7 55.3833 19.7ZM67.7867 22.32H64.5867V9.66H70.6267C72.2134 9.66 73.3667 10.02 74.0867 10.74C74.8201 11.4467 75.1867 12.4933 75.1867 13.88C75.1867 14.92 74.9267 15.8133 74.4067 16.56C73.8867 17.2933 73.2001 17.7533 72.3467 17.94L72.3267 18C72.6601 18.2133 73.0267 18.5667 73.4267 19.06C73.8267 19.5533 74.2201 20.0933 74.6067 20.68C75.0067 21.2533 75.3601 21.7933 75.6667 22.3V22.32H71.9467L69.7867 19.12C69.6001 18.84 69.4467 18.64 69.3267 18.52C69.2201 18.4 69.0867 18.3267 68.9267 18.3C68.7801 18.2733 68.5401 18.26 68.2067 18.26H67.7867V22.32ZM70.1067 12.26H67.7867V15.66H70.1067C70.7734 15.66 71.2334 15.5267 71.4867 15.26C71.7534 14.9933 71.8867 14.56 71.8867 13.96C71.8867 13.36 71.7534 12.9267 71.4867 12.66C71.2334 12.3933 70.7734 12.26 70.1067 12.26ZM78.4773 22.32V9.66H87.8773V12.26H81.6773V14.66H87.0573V17.26H81.6773V19.72H87.8773V22.32H78.4773ZM93.0734 22.32V12.36H89.4734V9.66H99.8734V12.36H96.2734V22.32H93.0734ZM105.474 22.32H102.274V9.66H105.474V14.5H110.274V9.66H113.474V22.32H110.274V17.1H105.474V22.32ZM128.468 22.26V22.32H125.068C124.975 22 124.861 21.6333 124.728 21.22C124.608 20.8067 124.475 20.3667 124.328 19.9H120.008C119.741 20.8333 119.495 21.64 119.268 22.32H115.868V22.28L119.968 9.66H124.368L128.468 22.26ZM122.128 11.94C121.995 12.62 121.801 13.4467 121.548 14.42C121.295 15.3933 121.028 16.3867 120.748 17.4H123.608C123.315 16.3867 123.041 15.3933 122.788 14.42C122.535 13.4467 122.341 12.62 122.208 11.94H122.128Z" fill="#FDCA40"/>
</svg>
