<svg width="21" height="21" viewBox="0 0 21 21" fill="none" xmlns="http://www.w3.org/2000/svg">
<path d="M12.5999 8.40041C12.0496 8.39866 11.5044 8.49768 10.9954 8.6918C10.4864 8.88592 10.0236 9.17133 9.63346 9.53171C9.24336 9.89209 8.93361 10.3204 8.72195 10.792C8.51028 11.2637 8.40084 11.7694 8.3999 12.2804V16.2004C8.3999 16.3595 8.46798 16.5121 8.58916 16.6247C8.71033 16.7372 8.87469 16.8004 9.04606 16.8004H10.5537C10.7251 16.8004 10.8895 16.7372 11.0106 16.6247C11.1318 16.5121 11.1999 16.3595 11.1999 16.2004V12.2804C11.1998 12.0987 11.2409 11.919 11.3205 11.753C11.4002 11.587 11.5167 11.4384 11.6623 11.317C11.8079 11.1956 11.9795 11.1041 12.1658 11.0484C12.3521 10.9927 12.5489 10.9741 12.7435 10.9937C13.0924 11.0346 13.4131 11.1928 13.6447 11.4386C13.8763 11.6844 14.0027 12.0005 13.9999 12.3271V16.2004C13.9999 16.3595 14.068 16.5121 14.1892 16.6247C14.3103 16.7372 14.4747 16.8004 14.6461 16.8004H16.1537C16.3251 16.8004 16.4895 16.7372 16.6106 16.6247C16.7318 16.5121 16.7999 16.3595 16.7999 16.2004V12.2804C16.799 11.7694 16.6895 11.2637 16.4779 10.792C16.2662 10.3204 15.9564 9.89209 15.5663 9.53171C15.1762 9.17133 14.7134 8.88592 14.2044 8.6918C13.6954 8.49768 13.1502 8.39866 12.5999 8.40041Z" fill="#EFF5F8"/>
<path d="M6.7202 8.40039H4.8302C4.48226 8.40039 4.2002 8.68968 4.2002 9.04654V16.1542C4.2002 16.5111 4.48226 16.8004 4.8302 16.8004H6.7202C7.06813 16.8004 7.3502 16.5111 7.3502 16.1542V9.04654C7.3502 8.68968 7.06813 8.40039 6.7202 8.40039Z" fill="#EFF5F8"/>
<path d="M5.7752 7.34922C6.64504 7.34922 7.3502 6.64407 7.3502 5.77422C7.3502 4.90437 6.64504 4.19922 5.7752 4.19922C4.90535 4.19922 4.2002 4.90437 4.2002 5.77422C4.2002 6.64407 4.90535 7.34922 5.7752 7.34922Z" fill="#EFF5F8"/>
</svg>
