<svg width="15" height="16" viewBox="0 0 15 16" fill="none" xmlns="http://www.w3.org/2000/svg">
<path d="M9.02797 10.4332L10.0227 9.43842C10.1567 9.30611 10.3262 9.21553 10.5107 9.17769C10.6951 9.13985 10.8866 9.15638 11.0619 9.22527L12.2742 9.70931C12.4513 9.7812 12.6032 9.9039 12.7106 10.062C12.8181 10.22 12.8764 10.4063 12.8781 10.5975V12.8179C12.8771 12.9479 12.8498 13.0763 12.7978 13.1955C12.7458 13.3147 12.6702 13.4221 12.5756 13.5113C12.481 13.6005 12.3694 13.6697 12.2474 13.7146C12.1253 13.7595 11.9955 13.7792 11.8656 13.7726C3.37041 13.2442 1.65626 6.0501 1.33209 3.29681C1.31704 3.1616 1.33079 3.02475 1.37243 2.89523C1.41407 2.76572 1.48267 2.6465 1.57369 2.5454C1.66472 2.4443 1.77613 2.36363 1.90058 2.30867C2.02503 2.25372 2.1597 2.22575 2.29574 2.22658H4.44064C4.63204 2.22715 4.8189 2.28496 4.97717 2.39259C5.13545 2.50022 5.25791 2.65274 5.3288 2.83053L5.81284 4.04286C5.88401 4.21742 5.90216 4.40907 5.86504 4.59388C5.82792 4.77869 5.73717 4.94847 5.60413 5.08201L4.60939 6.07675C4.60939 6.07675 5.18225 9.95355 9.02797 10.4332Z" fill="#EFF5F8"/>
</svg>
