<svg width="22" height="21" viewBox="0 0 22 21" fill="none" xmlns="http://www.w3.org/2000/svg">
<path d="M14.5093 7.875C15.0529 7.875 15.4937 7.43428 15.4937 6.89062C15.4937 6.34697 15.0529 5.90625 14.5093 5.90625C13.9656 5.90625 13.5249 6.34697 13.5249 6.89062C13.5249 7.43428 13.9656 7.875 14.5093 7.875Z" fill="#EFF5F8"/>
<path d="M10.8999 7.21875C10.2509 7.21875 9.61654 7.41119 9.07694 7.77174C8.53734 8.13229 8.11677 8.64475 7.86842 9.24432C7.62007 9.84389 7.55509 10.5036 7.6817 11.1401C7.80831 11.7766 8.12082 12.3613 8.57971 12.8202C9.0386 13.2791 9.62326 13.5916 10.2598 13.7182C10.8963 13.8448 11.556 13.7798 12.1556 13.5315C12.7552 13.2831 13.2676 12.8626 13.6282 12.323C13.9887 11.7834 14.1812 11.149 14.1812 10.5C14.1812 9.62976 13.8354 8.79516 13.2201 8.17981C12.6047 7.56445 11.7701 7.21875 10.8999 7.21875ZM10.8999 12.63C10.4786 12.63 10.0668 12.5051 9.71654 12.271C9.36627 12.037 9.09326 11.7043 8.93205 11.3151C8.77083 10.9259 8.72865 10.4976 8.81084 10.0845C8.89303 9.67128 9.09589 9.29175 9.39377 8.99387C9.69166 8.69598 10.0712 8.49312 10.4844 8.41094C10.8975 8.32875 11.3258 8.37093 11.715 8.53215C12.1042 8.69336 12.4369 8.96637 12.6709 9.31664C12.905 9.66692 13.0299 10.0787 13.0299 10.5C13.0299 11.0649 12.8055 11.6067 12.406 12.0061C12.0066 12.4056 11.4648 12.63 10.8999 12.63Z" fill="#EFF5F8"/>
<path d="M10.8999 5.11984C12.6521 5.11984 12.8599 5.12641 13.5517 5.15812C13.9678 5.16306 14.3799 5.23946 14.7701 5.38398C15.0532 5.49319 15.3103 5.66045 15.5249 5.87501C15.7394 6.08957 15.9067 6.34667 16.0159 6.62977C16.1604 7.01998 16.2368 7.43212 16.2418 7.8482C16.2735 8.54 16.2801 8.74781 16.2801 10.5005C16.2801 12.2533 16.2735 12.46 16.2418 13.1518C16.2368 13.5679 16.1604 13.98 16.0159 14.3702C15.9067 14.6533 15.7394 14.9104 15.5249 15.125C15.3103 15.3395 15.0532 15.5068 14.7701 15.616C14.3799 15.7605 13.9678 15.8369 13.5517 15.8419C12.8599 15.8736 12.6521 15.8802 10.8999 15.8802C9.14771 15.8802 8.9399 15.8736 8.24811 15.8419C7.83202 15.8369 7.41988 15.7605 7.02967 15.616C6.74657 15.5068 6.48947 15.3395 6.27491 15.125C6.06036 14.9104 5.89309 14.6533 5.78389 14.3702C5.63937 13.98 5.56297 13.5679 5.55803 13.1518C5.52631 12.46 5.51975 12.2522 5.51975 10.5C5.51975 8.74781 5.52631 8.54 5.55803 7.8482C5.56297 7.43212 5.63937 7.01998 5.78389 6.62977C5.89309 6.34667 6.06036 6.08957 6.27491 5.87501C6.48947 5.66045 6.74657 5.49319 7.02967 5.38398C7.41988 5.23946 7.83202 5.16306 8.24811 5.15812C8.9399 5.12641 9.14771 5.11984 10.8999 5.11984ZM10.8999 3.9375C9.11764 3.9375 8.89396 3.94516 8.19396 3.97688C7.6497 3.98787 7.11124 4.09105 6.60146 4.28203C6.16545 4.45063 5.76948 4.70847 5.43893 5.03903C5.10837 5.36958 4.85053 5.76555 4.68193 6.20156C4.49089 6.71151 4.38771 7.25016 4.37678 7.79461C4.34506 8.49461 4.3374 8.71719 4.3374 10.5C4.3374 12.2828 4.34506 12.5059 4.37678 13.2059C4.38777 13.7502 4.49095 14.2887 4.68193 14.7984C4.85053 15.2344 5.10837 15.6304 5.43893 15.961C5.76948 16.2915 6.16545 16.5494 6.60146 16.718C7.11141 16.909 7.65006 17.0122 8.19451 17.0231C8.89451 17.0548 9.11764 17.0625 10.8999 17.0625C12.6822 17.0625 12.9058 17.0548 13.6058 17.0231C14.1503 17.0122 14.6889 16.909 15.1989 16.718C15.6349 16.5494 16.0309 16.2915 16.3614 15.961C16.692 15.6304 16.9498 15.2344 17.1184 14.7984C17.3093 14.2885 17.4123 13.7498 17.423 13.2054C17.4547 12.5054 17.4624 12.2828 17.4624 10.5C17.4624 8.71719 17.4547 8.49406 17.423 7.79406C17.412 7.2498 17.3089 6.71134 17.1179 6.20156C16.9493 5.76555 16.6914 5.36958 16.3609 5.03903C16.0303 4.70847 15.6344 4.45063 15.1983 4.28203C14.6884 4.09117 14.1497 3.98818 13.6053 3.97742C12.9053 3.94461 12.6827 3.9375 10.8999 3.9375Z" fill="#EFF5F8"/>
</svg>
