<svg width="15" height="15" viewBox="0 0 15 15" fill="none" xmlns="http://www.w3.org/2000/svg">
<path d="M7.10501 1.86719C4.61816 1.86719 2.36816 3.77377 2.36816 6.72245C2.36816 8.60535 3.81882 10.8198 6.71422 13.3718C6.93922 13.5672 7.27672 13.5672 7.50172 13.3718C10.3912 10.8198 11.8418 8.60535 11.8418 6.72245C11.8418 3.77377 9.59185 1.86719 7.10501 1.86719ZM7.10501 7.78824C6.45369 7.78824 5.9208 7.25535 5.9208 6.60403C5.9208 5.95271 6.45369 5.41982 7.10501 5.41982C7.75632 5.41982 8.28922 5.95271 8.28922 6.60403C8.28922 7.25535 7.75632 7.78824 7.10501 7.78824Z" fill="#EFF5F8"/>
</svg>
