<svg width="15" height="16" viewBox="0 0 15 16" fill="none" xmlns="http://www.w3.org/2000/svg">
<path d="M7.10513 13.9202C6.29592 13.9202 5.53112 13.7647 4.81073 13.4537C4.09033 13.143 3.46132 12.7187 2.92369 12.1806C2.38566 11.643 1.96132 11.014 1.65066 10.2936C1.33961 9.57319 1.18408 8.80839 1.18408 7.99918C1.18408 7.1801 1.33961 6.41293 1.65066 5.69766C1.96132 4.98201 2.38566 4.35536 2.92369 3.81773C3.46132 3.2797 4.09033 2.85516 4.81073 2.54411C5.53112 2.23345 6.29592 2.07812 7.10513 2.07812C7.92421 2.07812 8.69138 2.23345 9.40665 2.54411C10.1223 2.85516 10.749 3.2797 11.2866 3.81773C11.8246 4.35536 12.249 4.98201 12.5596 5.69766C12.8707 6.41293 13.0262 7.1801 13.0262 7.99918V8.85773C13.0262 9.43997 12.8265 9.93576 12.427 10.3451C12.0271 10.7548 11.5361 10.9597 10.9538 10.9597C10.5986 10.9597 10.268 10.8808 9.96204 10.7229C9.65612 10.565 9.40448 10.3577 9.20711 10.1012C8.94066 10.3676 8.62744 10.5774 8.26744 10.7306C7.90704 10.8833 7.51961 10.9597 7.10513 10.9597C6.28606 10.9597 5.58796 10.671 5.01086 10.0935C4.43336 9.51635 4.14461 8.81826 4.14461 7.99918C4.14461 7.1801 4.43336 6.48181 5.01086 5.90431C5.58796 5.3272 6.28606 5.03865 7.10513 5.03865C7.92421 5.03865 8.6225 5.3272 9.2 5.90431C9.77711 6.48181 10.0657 7.1801 10.0657 7.99918V8.85773C10.0657 9.14391 10.1545 9.36832 10.3321 9.53095C10.5097 9.69398 10.717 9.77549 10.9538 9.77549C11.1907 9.77549 11.3979 9.69398 11.5755 9.53095C11.7532 9.36832 11.842 9.14391 11.842 8.85773V7.99918C11.842 6.70641 11.3756 5.59365 10.4428 4.66089C9.51046 3.72852 8.3979 3.26234 7.10513 3.26234C5.81237 3.26234 4.69961 3.72852 3.76685 4.66089C2.83448 5.59365 2.36829 6.70641 2.36829 7.99918C2.36829 9.29194 2.83448 10.4045 3.76685 11.3369C4.69961 12.2696 5.81237 12.736 7.10513 12.736H10.0657V13.9202H7.10513ZM7.10513 9.77549C7.59856 9.77549 8.01796 9.6028 8.36336 9.2574C8.70875 8.91201 8.88145 8.4926 8.88145 7.99918C8.88145 7.50576 8.70875 7.08635 8.36336 6.74095C8.01796 6.39556 7.59856 6.22286 7.10513 6.22286C6.61171 6.22286 6.19231 6.39556 5.84691 6.74095C5.50152 7.08635 5.32882 7.50576 5.32882 7.99918C5.32882 8.4926 5.50152 8.91201 5.84691 9.2574C6.19231 9.6028 6.61171 9.77549 7.10513 9.77549Z" fill="#EFF5F8"/>
</svg>
