<svg width="22" height="21" viewBox="0 0 22 21" fill="none" xmlns="http://www.w3.org/2000/svg">
<path d="M8.0227 16.3664C9.13119 16.3734 10.23 16.1602 11.2555 15.7392C12.281 15.3182 13.2127 14.6978 13.9965 13.914C14.7803 13.1301 15.4007 12.1985 15.8217 11.173C16.2427 10.1475 16.4559 9.04869 16.4489 7.94019V7.553C17.0236 7.13201 17.5209 6.61468 17.9189 6.02394C17.3779 6.26058 16.8054 6.41752 16.2193 6.48988C16.8407 6.11961 17.3069 5.53678 17.5318 4.84925C16.9526 5.1967 16.3176 5.44095 15.6549 5.57112C15.2086 5.09558 14.618 4.78038 13.9745 4.67428C13.3311 4.56819 12.6705 4.67712 12.0952 4.98421C11.5199 5.29131 11.0618 5.77945 10.7918 6.37311C10.5218 6.96678 10.455 7.63286 10.6018 8.26831C9.42446 8.21053 8.27254 7.90542 7.22099 7.37286C6.16945 6.84031 5.24186 6.09224 4.49863 5.17737C4.12386 5.82783 4.01027 6.5964 4.18085 7.32746C4.35143 8.05852 4.79344 8.69745 5.41738 9.11488C4.9571 9.09712 4.50746 8.97122 4.10488 8.74738V8.78019C4.10079 9.45995 4.32979 10.1206 4.75372 10.652C5.17765 11.1834 5.77089 11.5535 6.43457 11.7005C6.00646 11.8156 5.55801 11.8336 5.12207 11.753C5.31421 12.3327 5.68099 12.8388 6.1721 13.2019C6.66321 13.5649 7.25461 13.7671 7.8652 13.7808C6.82124 14.6212 5.52376 15.0837 4.18363 15.0933C3.94866 15.0865 3.71425 15.0668 3.48145 15.0343C4.83788 15.8985 6.41436 16.3541 8.0227 16.3468" fill="#EFF5F8"/>
</svg>
